<?xml version="1.0" encoding="iso-8859-1"?>
<!-- Generator: Adobe Illustrator 16.0.0, SVG Export Plug-In . SVG Version: 6.00 Build 0)  -->
<!DOCTYPE svg PUBLIC "-//W3C//DTD SVG 1.1//EN" "http://www.w3.org/Graphics/SVG/1.1/DTD/svg11.dtd">
<svg version="1.1" id="Capa_1" xmlns="http://www.w3.org/2000/svg" xmlns:xlink="http://www.w3.org/1999/xlink" x="0px" y="0px"
	 width="964.6px" height="964.599px" viewBox="0 0 964.6 964.599" style="enable-background:new 0 0 964.6 964.599;"
	 xml:space="preserve">
<g>
	<g>
		<path d="M35.8,775.35h267.6h32.7h292.4h32.7h267.6c19.8,0,35.8-16,35.8-35.801V480.15c0-19.8-16-35.8-35.8-35.8H661.2v-219.3
			c0-19.8-16-35.8-35.801-35.8H339.2c-19.801,0-35.801,16-35.801,35.8v157.7H35.8c-19.8,0-35.8,16-35.8,35.8v320.9
			C0,759.25,16,775.35,35.8,775.35z M742.3,653.85l17.7-2.2c4.899-0.601,9.399,2.5,10.899,7.2c1.7,5.6,4.4,10.199,8,13.699
			c5.301,5.101,11.7,7.601,19.2,7.601c8,0,14.8-3.101,20.3-9.2s8.301-14.3,8.301-24.7c0-9.8-2.601-17.6-7.9-23.3s-11.7-8.6-19.3-8.6
			c-1.5,0-3.101,0.1-4.8,0.3c-6.601,0.7-12.101-5-11.2-11.601l1.2-9.1c0.6-4.7,4.399-8.3,9.1-8.8c6.8-0.8,12.2-3,16.2-6.5
			c5.6-4.9,8.3-11.3,8.3-19.4c0-6.8-2-12.3-6.1-16.399c-4.101-4.101-9.5-6.101-16.2-6.101s-12.4,2.3-17.101,6.9
			c-3,3-5.3,6.8-6.8,11.5c-1.6,4.899-6.399,7.899-11.5,7.1l-15.3-2.6c-6.1-1-9.9-7.3-8-13.2c2.2-7.2,5-13.2,8.4-18.1
			c5-7.4,12.1-13.101,21.1-17.301c9-4.199,19.1-6.3,30.3-6.3c19.2,0,34.5,6.101,46.101,18.3c9.5,10,14.3,21.301,14.3,33.9
			c0,17.9-9.8,32.1-29.3,42.7c11.699,2.5,21,8.1,28,16.8s10.5,19.2,10.5,31.5c0,17.9-6.5,33.1-19.601,45.7
			c-13,12.6-29.3,18.9-48.7,18.9c-18.399,0-33.699-5.301-45.8-15.9c-9.3-8.1-15.6-18.1-18.899-30
			C732,660.65,736.1,654.549,742.3,653.85z M430.3,315.25c0-4.1,2.4-7.8,6.1-9.4c8.4-3.6,17.5-9.2,27-16.6
			c10-7.8,17.301-16.6,22.101-26.6c1.7-3.6,5.3-6,9.3-6h14.6c5.7,0,10.2,4.6,10.2,10.2v183.8c0,5.7-4.6,10.2-10.2,10.2h-18.5
			c-5.699,0-10.199-4.601-10.199-10.2v-136.6c-10.601,9.9-22.601,17.9-35.9,23.9c-6.8,3.1-14.4-1.9-14.4-9.3v-13.4H430.3z
			 M97.8,634.85c2.3-9.101,6-17.9,11.1-26.301c7.4-12.3,22-28.5,43.9-48.8c17.6-16.399,28.4-27.5,32.3-33.3c5.4-8,8-16,8-23.9
			c0-8.699-2.3-15.399-7-20.1c-4.7-4.7-11.1-7-19.4-7c-8.1,0-14.6,2.5-19.4,7.4c-3.4,3.5-5.8,8.6-7.2,15.399
			c-1,5.101-5.8,8.601-11,8.101l-18.2-1.801c-6.1-0.6-10.3-6.399-9-12.399c3.4-15.7,10-27.3,20-34.9c12.2-9.3,27.5-14,45.8-14
			c20.1,0,35.9,5.4,47.3,16.2c11.5,10.8,17.2,24.3,17.2,40.4c0,9.199-1.6,17.899-4.9,26.199c-3.3,8.301-8.5,17-15.6,26
			c-4.7,6-13.2,14.7-25.5,26c-12.3,11.301-20.1,18.801-23.4,22.5c-3.3,3.7-5.9,7.301-8,10.801H222c5.7,0,10.2,4.6,10.2,10.199v15.7
			c0,5.7-4.6,10.2-10.2,10.2H107.8C101.2,647.45,96.2,641.25,97.8,634.85z"/>
	</g>
</g>
<g>
</g>
<g>
</g>
<g>
</g>
<g>
</g>
<g>
</g>
<g>
</g>
<g>
</g>
<g>
</g>
<g>
</g>
<g>
</g>
<g>
</g>
<g>
</g>
<g>
</g>
<g>
</g>
<g>
</g>
</svg>
